<svg xmlns="http://www.w3.org/2000/svg" width="18" height="18" viewBox="0 0 18 18"><defs><style>.fill{fill:#464646}</style></defs><title>S Breakdown 18 N</title><rect id="Canvas" width="18" height="18" fill="#ff13dc" opacity="0"/><path d="M16,3.5v-2a.5.5,0,0,0-.5-.5H1.5a.5.5,0,0,0-.5.5v2a.5.5,0,0,0,.5.5H4V16.5a.5.5,0,0,0,.5.5h11a.5.5,0,0,0,.5-.5v-1a.5.5,0,0,0-.5-.5H6V13h9.5a.5.5,0,0,0,.5-.5v-1a.5.5,0,0,0-.5-.5H6V9h9.5a.5.5,0,0,0,.5-.5v-1a.5.5,0,0,0-.5-.5H6V4h9.5A.5.5,0,0,0,16,3.5Z" class="fill"/></svg>