<?xml version="1.0" encoding="UTF-8"?><svg id="Layer_1" xmlns="http://www.w3.org/2000/svg" viewBox="0 0 18 18"><defs><style>.cls-1{fill:rgba(255,19,220,0);}.cls-2{fill:#464646;}</style></defs><rect id="Canvas" class="cls-1" x="0" width="18" height="18"/><path class="cls-2" d="M.56,16H17.44c.32,0,.57-.27,.56-.58V2.58c0-.32-.25-.58-.56-.58H.56C.25,2.01,0,2.27,0,2.58V15.42c0,.32,.25,.58,.56,.58ZM7.7,4.25c0-.14,.11-.25,.25-.25h8.8c.14,0,.25,.11,.25,.25v.5c0,.14-.11,.25-.25,.25H7.95c-.14,0-.25-.11-.25-.25v-.5ZM1,6H17V14H1V6Z"/></svg>