<svg xmlns="http://www.w3.org/2000/svg" width="18" height="18" aria-hidden="true" class="spectrum-Tabs-item-icon spectrum-Icon spectrum-Icon--sizeS" data-name="citation"><path d="M7.67 2.012C4.51 3.035 2 5.472 2 9v6.75a.25.25 0 0 0 .25.25h5.5a.251.251 0 0 0 .25-.25v-6.5A.251.251 0 0 0 7.75 9H5.076A4.246 4.246 0 0 1 7.84 4.759.246.246 0 0 0 8 4.533V2.255a.256.256 0 0 0-.33-.243ZM15.67 2.012C12.51 3.035 10 5.472 10 9v6.75a.25.25 0 0 0 .25.25h5.5a.251.251 0 0 0 .25-.25v-6.5a.251.251 0 0 0-.25-.25h-2.674a4.246 4.246 0 0 1 2.764-4.241.246.246 0 0 0 .16-.226V2.255a.256.256 0 0 0-.33-.243Z"/></svg>