<svg id="Decorative_icon" data-name="Decorative icon" xmlns="http://www.w3.org/2000/svg" width="18" height="18" viewBox="0 0 18 18">
  <g id="Placement_Area" data-name="Placement Area" fill="red" stroke="rgba(0,0,0,0)" stroke-width="1" opacity="0">
    <rect width="18" height="18" stroke="none"/>
    <rect x="0.5" y="0.5" width="17" height="17" fill="none"/>
  </g>
  <g id="Icon">
    <g id="Canvas" fill="#6e6e6e" stroke="#6e6e6e" stroke-width="1" opacity="0">
      <rect width="18" height="18" stroke="none"/>
      <rect x="0.5" y="0.5" width="17" height="17" fill="none"/>
    </g>
    <path id="Path_638" data-name="Path 638" d="M16.75,3H7.95a2.5,2.5,0,0,0-4.9,0H1.25A.25.25,0,0,0,1,3.25v.5A.25.25,0,0,0,1.25,4h1.8a2.5,2.5,0,0,0,4.9,0h8.8A.25.25,0,0,0,17,3.75v-.5A.25.25,0,0,0,16.75,3ZM5.5,5A1.5,1.5,0,1,1,7,3.5,1.5,1.5,0,0,1,5.5,5Z" fill="#6e6e6e"/>
    <path id="Path_639" data-name="Path 639" d="M16.75,13H9.95a2.5,2.5,0,0,0-4.9,0H1.25a.25.25,0,0,0-.25.25v.5a.25.25,0,0,0,.25.25h3.8a2.5,2.5,0,0,0,4.9,0h6.8a.25.25,0,0,0,.25-.25v-.5A.25.25,0,0,0,16.75,13ZM7.5,15A1.5,1.5,0,1,1,9,13.5,1.5,1.5,0,0,1,7.5,15Z" fill="#6e6e6e"/>
    <path id="Path_640" data-name="Path 640" d="M1,8.25v.5A.25.25,0,0,0,1.25,9h8.8a2.5,2.5,0,0,0,4.9,0h1.8A.25.25,0,0,0,17,8.75v-.5A.25.25,0,0,0,16.75,8h-1.8a2.5,2.5,0,0,0-4.9,0H1.25A.25.25,0,0,0,1,8.25ZM11,8.5A1.5,1.5,0,1,1,12.5,10,1.5,1.5,0,0,1,11,8.5Z" fill="#6e6e6e"/>
  </g>
</svg>
