<svg xmlns="http://www.w3.org/2000/svg" height="24" id="S_Delete_24_N" viewBox="0 0 24 24" width="24">
  <defs>
    <style>
      .fill {
        fill: #707070;
      }

      
    </style>
  </defs>
  <rect id="Canvas" fill="#ff13dc" opacity="0" width="24" height="24" /><path class="fill" d="M20.5,4H17V3a2,2,0,0,0-2-2H9A2,2,0,0,0,7,3V4H3.5a.5.5,0,0,0-.5.5v1a.5.5,0,0,0,.5.5h.6l1,15a1,1,0,0,0,1,1H17.9a1,1,0,0,0,1-1l1-15h.6a.5.5,0,0,0,.5-.5v-1A.5.5,0,0,0,20.5,4ZM9,3h6V4H9ZM8.38,18.987a1,1,0,0,1-1.067-.929L6.691,9.08a1,1,0,0,1,2-.138l.622,8.978A1,1,0,0,1,8.38,18.987ZM13,18a1,1,0,0,1-2,0V9a1,1,0,0,1,2,0Zm3.687.058a1,1,0,0,1-2-.138l.622-8.978a1,1,0,0,1,2,.138Z" />
  </svg>