<svg xmlns="http://www.w3.org/2000/svg" data-name="S_FindAndReplace_24_N@1x" height="24" id="S_FindAndReplace_24_N_1x" viewBox="0 0 24 24" width="24">
  <defs>
    <style>
	.fill {
        fill: #707070;
      }</style>
  </defs>
  <title>S_FindAndReplace_24_N@1x</title>
  <rect id="ToDelete" fill="#ff13dc" opacity="0" width="24" height="24" /><path class="fill" d="M23.638,21.651,20.192,16.63A8.009,8.009,0,1,0,6.544,11.642a3.419,3.419,0,0,0,2.128.916,6.047,6.047,0,1,1,5.18,4.449,8.657,8.657,0,0,1-.976.584,8.555,8.555,0,0,1-1.75.648,7.926,7.926,0,0,0,6.592.087l3.446,5.022a1.5,1.5,0,0,0,2.474-1.7Z" />
  <path class="fill" d="M6.056,3.2a4.366,4.366,0,0,1,3.523-.155,9.294,9.294,0,0,1,1.769-.866,5.943,5.943,0,0,0-6.061-.506A5.821,5.821,0,0,0,2.335,5.291L0,4.518,2.177,8.84,6.491,6.668,3.882,5.8A4.091,4.091,0,0,1,6.056,3.2Z" />
  <path class="fill" d="M15.413,11.576A6.71,6.71,0,0,1,11.978,15.8a7.194,7.194,0,0,1-9.351-3.086L4.2,11.925a5.33,5.33,0,0,0,6.883,2.107,5.085,5.085,0,0,0,2.565-3.059h0L10.684,9.96l4.9-2.469L18.108,12.5Z" />
  </svg>