<svg xmlns="http://www.w3.org/2000/svg" id="S_TextSpaceAfter_24_N_1x" width="24" height="24" data-name="S_TextSpaceAfter_24_N@1x" viewBox="0 0 24 24"><defs><style>.fill{fill:#707070}</style></defs><title>S_TextSpaceAfter_24_N@1x</title><rect id="ToDelete" width="24" height="24" fill="#ff13dc" opacity="0"/><rect width="14" height="2" x="8" y="2" class="fill" rx=".5" ry=".5"/><rect width="14" height="2" x="8" y="6" class="fill" rx=".5" ry=".5"/><rect width="14" height="2" x="8" y="10" class="fill" rx=".5" ry=".5"/><path d="M22,21.5v-7a.5.5,0,0,0-.5-.5H8.5a.5.5,0,0,0-.5.5v7a.5.5,0,0,0,.5.5h13A.5.5,0,0,0,22,21.5ZM20,20H10V16H20Z" class="fill"/><path d="M2.432,22.842A.25.25,0,0,1,2,22.671V13.329a.25.25,0,0,1,.432-.172L7,18Z" class="fill"/></svg>