<svg xmlns="http://www.w3.org/2000/svg" id="S_TextSpaceBefore_24_N_1x" width="24" height="24" data-name="S_TextSpaceBefore_24_N@1x" viewBox="0 0 24 24"><defs><style>.fill{fill:#707070}</style></defs><title>S_TextSpaceBefore_24_N@1x</title><rect id="ToDelete" width="24" height="24" fill="#ff13dc" opacity="0"/><rect width="14" height="2" x="8" y="20" class="fill" rx=".5" ry=".5"/><rect width="14" height="2" x="8" y="16" class="fill" rx=".5" ry=".5"/><rect width="14" height="2" x="8" y="12" class="fill" rx=".5" ry=".5"/><path d="M21.5,2H8.5a.5.5,0,0,0-.5.5v7a.5.5,0,0,0,.5.5h13a.5.5,0,0,0,.5-.5v-7A.5.5,0,0,0,21.5,2ZM20,8H10V4H20Z" class="fill"/><path d="M2.432,1.158A.25.25,0,0,0,2,1.329v9.341a.25.25,0,0,0,.432.172L7,6Z" class="fill"/></svg>