<svg xmlns="http://www.w3.org/2000/svg" height="24" id="S_Key_24_N" viewBox="0 0 24 24" width="24">
  <defs>
    <style>
      .fill {
        fill: #707070;
      }

      
    </style>
  </defs>
  <rect id="Canvas" fill="#ff13dc" opacity="0" width="24" height="24" /><path class="fill" d="M23.682,5.85,19.373,1.541a1,1,0,0,0-1.414,0L8.8,10.7a6.012,6.012,0,1,0,2.515,2.531l4.467-4.467,2.493,2.493a.5.5,0,0,0,.707,0l2.23-2.23L18.368,6.177l.821-.82L22.035,8.2l1.647-1.647A.5.5,0,0,0,23.682,5.85ZM5,19a2,2,0,1,1,2-2A2,2,0,0,1,5,19Z" />
  </svg>