<svg xmlns="http://www.w3.org/2000/svg" height="24" id="S_Brackets_24_N" viewBox="0 0 24 24" width="24">
  <defs>
    <style>
      .fill {
        fill: #707070;
      }

      
    </style>
  </defs>
  <rect id="Canvas" fill="#ff13dc" opacity="0" width="24" height="24" /><path class="fill" d="M9,20.789a.5.5,0,0,0-.5-.5H7.488a.482.482,0,0,1-.5-.459V14.5c0-1.171-1.935-2.51-1.935-2.51s1.935-1.3,1.935-2.49V4.141A.473.473,0,0,1,7.48,3.69H8.5a.5.5,0,0,0,.5-.5V1.5A.5.5,0,0,0,8.5,1H8.021a4,4,0,0,0-4,4.019c.009,1.929.018,3.954.018,4.566,0,.818-1.079,1.584-1.84,2.023a.437.437,0,0,0,0,.772c.762.449,1.845,1.226,1.845,2.015V19a4,4,0,0,0,4,4H8.5a.5.5,0,0,0,.5-.5Z" />
  <path class="fill" d="M15,20.789a.5.5,0,0,1,.5-.5h1.012a.482.482,0,0,0,.5-.459V14.5c0-1.171,1.935-2.51,1.935-2.51s-1.935-1.3-1.935-2.49V4.141a.472.472,0,0,0-.491-.451H15.5a.5.5,0,0,1-.5-.5V1.5a.5.5,0,0,1,.5-.5h.48a4,4,0,0,1,4,4.019c-.01,1.929-.019,3.954-.019,4.566,0,.818,1.079,1.584,1.84,2.023a.437.437,0,0,1,.005.772c-.762.449-1.845,1.226-1.845,2.015V19a4,4,0,0,1-4,4H15.5a.5.5,0,0,1-.5-.5Z" />
  </svg>