<svg xmlns="http://www.w3.org/2000/svg" height="24" id="S_LockOpen_24_N" viewBox="0 0 24 24" width="24">
  <defs>
    <style>
      .fill {
        fill: #707070;
      }

      
    </style>
  </defs>
  <rect id="Canvas" fill="#ff13dc" opacity="0" width="24" height="24" /><path class="fill" d="M19,10H8V6.174C8,5.445,8.576,2,12,2a3.993,3.993,0,0,1,3.716,2.551.484.484,0,0,0,.455.3A.5.5,0,0,0,16.4,4.8l.906-.453a.509.509,0,0,0,.283-.449C17.585,3.086,15.57.1,12,.1A6.048,6.048,0,0,0,6,6.218V10H5a1,1,0,0,0-1,1V21a1,1,0,0,0,1,1H19a1,1,0,0,0,1-1V11A1,1,0,0,0,19,10Zm-6,6.723V18.5a.5.5,0,0,1-.5.5h-1a.5.5,0,0,1-.5-.5V16.723a2,2,0,1,1,2,0Z" />
  </svg>