<svg id="Decorative_icon" data-name="Decorative icon" xmlns="http://www.w3.org/2000/svg" width="18" height="18" viewBox="0 0 18 18">
  <g id="Placement_Area" data-name="Placement Area" fill="red" stroke="rgba(0,0,0,0)" stroke-width="1" opacity="0">
    <rect width="18" height="18" stroke="none"/>
    <rect x="0.5" y="0.5" width="17" height="17" fill="none"/>
  </g>
  <g id="Icon">
    <g id="Canvas" fill="#6e6e6e" stroke="#6e6e6e" stroke-width="1" opacity="0">
      <rect width="18" height="18" stroke="none"/>
      <rect x="0.5" y="0.5" width="17" height="17" fill="none"/>
    </g>
    <g id="Rectangle_140357" data-name="Rectangle 140357" transform="translate(2 1)" fill="#6e6e6e" stroke="#6e6e6e" stroke-width="1">
      <rect width="3" height="3" rx="1.4" stroke="none"/>
      <rect x="0.5" y="0.5" width="2" height="2" rx="0.9" fill="none"/>
    </g>
    <g id="Rectangle_140358" data-name="Rectangle 140358" transform="translate(6 7)" fill="#6e6e6e" stroke="#6e6e6e" stroke-width="1">
      <rect width="3" height="3" rx="1.4" stroke="none"/>
      <rect x="0.5" y="0.5" width="2" height="2" rx="0.9" fill="none"/>
    </g>
    <g id="Rectangle_140359" data-name="Rectangle 140359" transform="translate(6 13)" fill="#6e6e6e" stroke="#6e6e6e" stroke-width="1">
      <rect width="3" height="3" rx="1.4" stroke="none"/>
      <rect x="0.5" y="0.5" width="2" height="2" rx="0.9" fill="none"/>
    </g>
    <g id="Rectangle_140360" data-name="Rectangle 140360" transform="translate(10 14)" fill="#6e6e6e" stroke="#6e6e6e" stroke-width="1">
      <rect width="7" height="2" rx="0.5" stroke="none"/>
      <rect x="0.5" y="0.5" width="6" height="1" fill="none"/>
    </g>
    <g id="Rectangle_140361" data-name="Rectangle 140361" transform="translate(10 8)" fill="#6e6e6e" stroke="#6e6e6e" stroke-width="1">
      <rect width="7" height="2" rx="0.5" stroke="none"/>
      <rect x="0.5" y="0.5" width="6" height="1" fill="none"/>
    </g>
    <g id="Rectangle_140362" data-name="Rectangle 140362" transform="translate(6 2)" fill="#6e6e6e" stroke="#6e6e6e" stroke-width="1">
      <rect width="11" height="2" rx="0.5" stroke="none"/>
      <rect x="0.5" y="0.5" width="10" height="1" fill="none"/>
    </g>
  </g>
</svg>
