<svg xmlns="http://www.w3.org/2000/svg" id="Decorative_icon" width="18" height="18" data-name="Decorative icon" viewBox="0 0 18 18"><g id="Placement_Area" fill="red" stroke="rgba(0,0,0,0)" stroke-width="1" data-name="Placement Area" opacity="0"><rect width="18" height="18" stroke="none"/><rect width="17" height="17" x=".5" y=".5" fill="none"/></g><g id="Icon"><g id="Canvas" fill="#6e6e6e" stroke="#6e6e6e" stroke-width="1" opacity="0"><rect width="18" height="18" stroke="none"/><rect width="17" height="17" x=".5" y=".5" fill="none"/></g><g id="Rectangle_140357" fill="#6e6e6e" stroke="#6e6e6e" stroke-width="1" data-name="Rectangle 140357" transform="translate(2 1)"><rect width="3" height="3" stroke="none" rx="1.4"/><rect width="2" height="2" x=".5" y=".5" fill="none" rx=".9"/></g><g id="Rectangle_140358" fill="#6e6e6e" stroke="#6e6e6e" stroke-width="1" data-name="Rectangle 140358" transform="translate(6 7)"><rect width="3" height="3" stroke="none" rx="1.4"/><rect width="2" height="2" x=".5" y=".5" fill="none" rx=".9"/></g><g id="Rectangle_140359" fill="#6e6e6e" stroke="#6e6e6e" stroke-width="1" data-name="Rectangle 140359" transform="translate(6 13)"><rect width="3" height="3" stroke="none" rx="1.4"/><rect width="2" height="2" x=".5" y=".5" fill="none" rx=".9"/></g><g id="Rectangle_140360" fill="#6e6e6e" stroke="#6e6e6e" stroke-width="1" data-name="Rectangle 140360" transform="translate(10 14)"><rect width="7" height="2" stroke="none" rx=".5"/><rect width="6" height="1" x=".5" y=".5" fill="none"/></g><g id="Rectangle_140361" fill="#6e6e6e" stroke="#6e6e6e" stroke-width="1" data-name="Rectangle 140361" transform="translate(10 8)"><rect width="7" height="2" stroke="none" rx=".5"/><rect width="6" height="1" x=".5" y=".5" fill="none"/></g><g id="Rectangle_140362" fill="#6e6e6e" stroke="#6e6e6e" stroke-width="1" data-name="Rectangle 140362" transform="translate(6 2)"><rect width="11" height="2" stroke="none" rx=".5"/><rect width="10" height="1" x=".5" y=".5" fill="none"/></g></g></svg>