<svg xmlns="http://www.w3.org/2000/svg" id="Decorative_icon" width="18" height="18" data-name="Decorative icon" viewBox="0 0 18 18"><g id="Placement_Area" fill="red" stroke="rgba(0,0,0,0)" stroke-width="1" data-name="Placement Area" opacity="0"><rect width="18" height="18" stroke="none"/><rect width="17" height="17" x=".5" y=".5" fill="none"/></g><g id="Icon"><g id="Canvas" fill="#6e6e6e" stroke="#6e6e6e" stroke-width="1" opacity="0"><rect width="18" height="18" stroke="none"/><rect width="17" height="17" x=".5" y=".5" fill="none"/></g><g id="Rectangle_140363" fill="#6e6e6e" stroke="#6e6e6e" stroke-width="1" data-name="Rectangle 140363" transform="translate(1 1)"><rect width="4" height="4" stroke="none" rx=".5"/><rect width="3" height="3" x=".5" y=".5" fill="none"/></g><g id="Rectangle_140364" fill="#6e6e6e" stroke="#6e6e6e" stroke-width="1" data-name="Rectangle 140364" transform="translate(6 2)"><rect width="11" height="2" stroke="none" rx=".25"/><rect width="10" height="1" x=".5" y=".5" fill="none" rx=".25"/></g><g id="Rectangle_140365" fill="#6e6e6e" stroke="#6e6e6e" stroke-width="1" data-name="Rectangle 140365" transform="translate(6 8)"><rect width="11" height="2" stroke="none" rx=".25"/><rect width="10" height="1" x=".5" y=".5" fill="none" rx=".25"/></g><g id="Rectangle_140366" fill="#6e6e6e" stroke="#6e6e6e" stroke-width="1" data-name="Rectangle 140366" transform="translate(6 14)"><rect width="11" height="2" stroke="none" rx=".25"/><rect width="10" height="1" x=".5" y=".5" fill="none" rx=".25"/></g><g id="Rectangle_140367" fill="#6e6e6e" stroke="#6e6e6e" stroke-width="1" data-name="Rectangle 140367" transform="translate(1 7)"><rect width="4" height="4" stroke="none" rx=".5"/><rect width="3" height="3" x=".5" y=".5" fill="none"/></g><g id="Rectangle_140368" fill="#6e6e6e" stroke="#6e6e6e" stroke-width="1" data-name="Rectangle 140368" transform="translate(1 13)"><rect width="4" height="4" stroke="none" rx=".5"/><rect width="3" height="3" x=".5" y=".5" fill="none"/></g></g></svg>