<svg id="Decorative_icon" data-name="Decorative icon" xmlns="http://www.w3.org/2000/svg" width="18" height="18" viewBox="0 0 18 18">
  <g id="Placement_Area" data-name="Placement Area" fill="red" stroke="rgba(0,0,0,0)" stroke-width="1" opacity="0">
    <rect width="18" height="18" stroke="none"/>
    <rect x="0.5" y="0.5" width="17" height="17" fill="none"/>
  </g>
  <g id="Icon">
    <g id="Canvas" fill="#6e6e6e" stroke="#6e6e6e" stroke-width="1" opacity="0">
      <rect width="18" height="18" stroke="none"/>
      <rect x="0.5" y="0.5" width="17" height="17" fill="none"/>
    </g>
    <g id="Rectangle_140363" data-name="Rectangle 140363" transform="translate(1 1)" fill="#6e6e6e" stroke="#6e6e6e" stroke-width="1">
      <rect width="4" height="4" rx="0.5" stroke="none"/>
      <rect x="0.5" y="0.5" width="3" height="3" fill="none"/>
    </g>
    <g id="Rectangle_140364" data-name="Rectangle 140364" transform="translate(6 2)" fill="#6e6e6e" stroke="#6e6e6e" stroke-width="1">
      <rect width="11" height="2" rx="0.25" stroke="none"/>
      <rect x="0.5" y="0.5" width="10" height="1" rx="0.25" fill="none"/>
    </g>
    <g id="Rectangle_140365" data-name="Rectangle 140365" transform="translate(6 8)" fill="#6e6e6e" stroke="#6e6e6e" stroke-width="1">
      <rect width="11" height="2" rx="0.25" stroke="none"/>
      <rect x="0.5" y="0.5" width="10" height="1" rx="0.25" fill="none"/>
    </g>
    <g id="Rectangle_140366" data-name="Rectangle 140366" transform="translate(6 14)" fill="#6e6e6e" stroke="#6e6e6e" stroke-width="1">
      <rect width="11" height="2" rx="0.25" stroke="none"/>
      <rect x="0.5" y="0.5" width="10" height="1" rx="0.25" fill="none"/>
    </g>
    <g id="Rectangle_140367" data-name="Rectangle 140367" transform="translate(1 7)" fill="#6e6e6e" stroke="#6e6e6e" stroke-width="1">
      <rect width="4" height="4" rx="0.5" stroke="none"/>
      <rect x="0.5" y="0.5" width="3" height="3" fill="none"/>
    </g>
    <g id="Rectangle_140368" data-name="Rectangle 140368" transform="translate(1 13)" fill="#6e6e6e" stroke="#6e6e6e" stroke-width="1">
      <rect width="4" height="4" rx="0.5" stroke="none"/>
      <rect x="0.5" y="0.5" width="3" height="3" fill="none"/>
    </g>
  </g>
</svg>
