<svg xmlns="http://www.w3.org/2000/svg" height="24" id="S_Redo_24_N" viewBox="0 0 24 24" width="24">
  <defs>
    <style>
      .fill {
        fill: #707070;
      }

      
    </style>
  </defs>
  <rect id="Canvas" fill="#ff13dc" opacity="0" width="24" height="24" /><path class="fill" d="M2,13.3A6.681,6.681,0,0,1,8.773,7H17V4a.5.5,0,0,1,.854-.354l4.573,4.676a.251.251,0,0,1,0,.354l-4.573,4.677A.5.5,0,0,1,17,13V10H8.7a3.633,3.633,0,0,0-3.693,3.312A3.5,3.5,0,0,0,8.5,17h4a.5.5,0,0,1,.5.5v2a.5.5,0,0,1-.5.5h-4A6.5,6.5,0,0,1,2,13.3Z" />
  </svg>