<svg xmlns="http://www.w3.org/2000/svg" height="24" id="S_Link_24_N" viewBox="0 0 24 24" width="24">
  <defs>
    <style>
      .fill {
        fill: #707070;
      }

      
    </style>
  </defs>
  <rect id="Canvas" fill="#ff13dc" opacity="0" width="24" height="24" /><path class="fill" d="M21.179,2.821a5.538,5.538,0,0,0-7.829,0c-.3.3-1.9,1.871-2.741,2.709A6.414,6.414,0,0,1,13.5,6c.4-.4,1.366-1.334,1.532-1.5A3.163,3.163,0,1,1,19.5,8.972l-4.1,4.1a3.432,3.432,0,0,1-4.688.144,3.2,3.2,0,0,1-.957-1.254,1.583,1.583,0,0,0-.33.246l-1.262,1.32a5.5,5.5,0,0,0,.947,1.291c2.161,2.162,6.074,1.824,8.236-.338l3.832-3.832A5.538,5.538,0,0,0,21.179,2.821Z" />
  <path class="fill" d="M10.4,18.036c-.4.4-1.262,1.3-1.428,1.465A3.163,3.163,0,0,1,4.5,15.028L8.606,10.92a3.4,3.4,0,0,1,4.663-.139,3.041,3.041,0,0,1,.853,1.289,1.577,1.577,0,0,0,.329-.246L15.789,10.5a5.492,5.492,0,0,0-.946-1.291,5.639,5.639,0,0,0-7.914.037L2.821,13.35a5.536,5.536,0,0,0,7.829,7.829c.3-.3,1.8-1.836,2.637-2.675A6.4,6.4,0,0,1,10.4,18.036Z" />
  </svg>