<svg xmlns="http://www.w3.org/2000/svg" data-name="S_TableAdd_24_N@1x" height="24" id="S_TableAdd_24_N_1x" viewBox="0 0 24 24" width="24">
  <defs>
    <style>
	.fill {
        fill: #707070;
      }</style>
  </defs>
  <title>S_TableAdd_24_N@1x</title>
  <rect id="ToDelete" fill="#ff13dc" opacity="0" width="24" height="24" /><path class="fill" d="M10.364,20H10V14h1.188a7.975,7.975,0,0,1,1.657-2H10V10H20v.3a7.912,7.912,0,0,1,2,.806V3a1,1,0,0,0-1-1H3A1,1,0,0,0,2,3V21a1,1,0,0,0,1,1h8.188A7.9,7.9,0,0,1,10.364,20ZM4,4H20V8H4ZM8,20H4V18H8Zm0-4H4V14H8Zm0-4H4V10H8Z" />
  <path class="fill" d="M18.05,12.05A5.95,5.95,0,1,0,24,18,5.95,5.95,0,0,0,18.05,12.05Zm4,6.7a.25.25,0,0,1-.25.25H19.05v2.75a.25.25,0,0,1-.25.25H17.3a.25.25,0,0,1-.25-.25V19H14.3a.25.25,0,0,1-.25-.25v-1.5A.25.25,0,0,1,14.3,17h2.75V14.25A.25.25,0,0,1,17.3,14h1.5a.25.25,0,0,1,.25.25V17H21.8a.25.25,0,0,1,.25.25Z" />
  </svg>