<svg xmlns="http://www.w3.org/2000/svg" width="18" height="18" viewBox="0 0 18 18"><defs><style>.fill{fill:#464646}</style></defs><title>S RotateCW 18 N</title><rect id="Canvas" width="18" height="18" fill="#ff13dc" opacity="0"/><circle cx="4.627" cy="14.994" r=".55" class="fill"/><circle cx="2.826" cy="13.06" r=".55" class="fill"/><circle cx="7.004" cy="16.134" r=".55" class="fill"/><circle cx="9.602" cy="16.378" r=".55" class="fill"/><circle cx="12.144" cy="15.71" r=".55" class="fill"/><circle cx="14.316" cy="14.196" r=".55" class="fill"/><circle cx="15.773" cy="12.101" r=".55" class="fill"/><path d="M9,.9a7.974,7.974,0,0,1,5.6365,2.33L16.35,2.05a.25.25,0,0,1,.3905.2315l-.524,5.1105-4.95-1.3395a.25.25,0,0,1-.0765-.447l1.673-1.15a6.7665,6.7665,0,0,0-4.35-1.55,6.30745,6.30745,0,0,0-6.5095,6.042v.014a7.41587,7.41587,0,0,0,.172,1.503.536.536,0,0,1-.35.627.54.54,0,0,1-.631-.428A8,8,0,0,1,9,.9Z" class="fill"/></svg>