<svg xmlns="http://www.w3.org/2000/svg" id="S_Data_24_N" width="24" height="24" viewBox="0 0 24 24"><defs><style>.fill{fill:#707070}</style></defs><rect id="Canvas" width="24" height="24" fill="#ff13dc" opacity="0"/><ellipse cx="12" cy="5.125" class="fill" rx="10" ry="3.125"/><path d="M12,16.079c-3.085,0-8.882-.73-10-2.5v5.3C2,20.6,6.477,22,12,22s10-1.4,10-3.125v-5.3C20.471,15.51,15.085,16.079,12,16.079Z" class="fill"/><path d="M12,10.251c-3.085,0-8.882-.73-10-2.5v3.236c0,1.726,4.477,3.125,10,3.125s10-1.4,10-3.125V7.748C20.471,9.682,15.085,10.251,12,10.251Z" class="fill"/></svg>