<svg xmlns="http://www.w3.org/2000/svg" width="18" height="18" viewBox="0 0 18 18"><defs><style>.fill{fill:#464646}</style></defs><title>S TextStrikethrough 18 N</title><rect id="Canvas" width="18" height="18" fill="#ff13dc" opacity="0"/><path d="M11.5,14H10V11H8v3H6.5a.5.5,0,0,0-.5.5v1a.5.5,0,0,0,.5.5h5a.5.5,0,0,0,.5-.5v-1A.5.5,0,0,0,11.5,14Z" class="fill"/><path d="M15.5,2H2.5a.5.5,0,0,0-.5.5v3a.5.5,0,0,0,.5.5h1A.5.5,0,0,0,4,5.5V4H8V8h2V4h4V5.5a.5.5,0,0,0,.5.5h1a.5.5,0,0,0,.5-.5v-3A.5.5,0,0,0,15.5,2Z" class="fill"/><rect width="14" height="1" x="2" y="9" class="fill" rx=".25"/></svg>