<svg xmlns="http://www.w3.org/2000/svg" width="18" height="18" viewBox="0 0 18 18">
  <path d="m4.547 10.204 3.316 3.01c-.1.11-.19.208-.258.279a1.16 1.16 0 0 1-.812.235h-.13a4.547 4.547 0 0 0-2.85 1.371l-.73-.605c.643-.924.99-2.02.998-3.146-.023-.314.06-.627.236-.888.072-.09.15-.175.23-.256Zm7.819-7.896L4.8 8.487S3.604 9.529 3.48 9.653a2.47 2.47 0 0 0-.555 1.787 4.78 4.78 0 0 1-.932 2.6l-1.529 1.8a.198.198 0 0 0 .11.355l2.635.725a.685.685 0 0 0 .604-.178l.275-.314a4.47 4.47 0 0 1 2.578-1.543h.13a2.264 2.264 0 0 0 1.64-.583c.108-.11.253-.27.406-.443.059-.023 6.712-8.545 6.712-8.545a.994.994 0 0 0-.15-1.438L13.81 2.35a.994.994 0 0 0-1.444-.043h-.001Z" />
  <path d="M18 12.04h-7.71c-1.064 1.405-1.745 2.215-2.046 2.433-.472.218-.553.338-1.45.412-2.02.168-2.828 1.983-3.288 1.983.222.686.988 1.064 2.3 1.132H18v-5.96Z" opacity="0.2"/>
</svg>