<svg xmlns="http://www.w3.org/2000/svg" width="16" height="15.646" viewBox="0 0 16 15.646">
  <g id="S_Review_18_N" transform="translate(-1 -1)">
    <g id="I_C_O_N_S" data-name="I C O N S">
      <path id="Path_103723" data-name="Path 103723" d="M13.5,1H1.5a.5.5,0,0,0-.5.5v8a.5.5,0,0,0,.5.5H4v3.4a.25.25,0,0,0,.427.177L8,10h5.5a.5.5,0,0,0,.5-.5v-8A.5.5,0,0,0,13.5,1Z" fill="#707070"/>
      <path id="Path_103724" data-name="Path 103724" d="M16.5,4H15V9.5A1.5,1.5,0,0,1,13.5,11H8.414l-1.8,1.8A.489.489,0,0,0,7,13h3l3.573,3.573A.25.25,0,0,0,14,16.4V13h2.5a.5.5,0,0,0,.5-.5v-8A.5.5,0,0,0,16.5,4Z" fill="#707070"/>
    </g>
  </g>
</svg>
