<svg xmlns="http://www.w3.org/2000/svg" height="24" id="S_Settings_24_N" viewBox="0 0 24 24" width="24">
  <defs>
    <style>
      .fill {
        fill: #707070;
      }

      
    </style>
  </defs>
  <rect id="Canvas" fill="#ff13dc" opacity="0" width="24" height="24" /><path class="fill" d="M21,10.35H19.5a.242.242,0,0,1-.235-.187,7.489,7.489,0,0,0-.832-2,.242.242,0,0,1,.035-.3l1.06-1.06a1,1,0,0,0,0-1.414l-.92-.92a1,1,0,0,0-1.414,0l-1.06,1.06a.242.242,0,0,1-.3.035,7.455,7.455,0,0,0-2-.831A.243.243,0,0,1,13.65,4.5V3a1,1,0,0,0-1-1h-1.3a1,1,0,0,0-1,1V4.5a.243.243,0,0,1-.187.236,7.455,7.455,0,0,0-2,.831.242.242,0,0,1-.3-.035L6.8,4.469a1,1,0,0,0-1.414,0l-.92.92a1,1,0,0,0,0,1.414l1.06,1.06a.242.242,0,0,1,.035.3,7.489,7.489,0,0,0-.832,2,.242.242,0,0,1-.235.187H3a1,1,0,0,0-1,1v1.3a1,1,0,0,0,1,1H4.5a.242.242,0,0,1,.235.187,7.489,7.489,0,0,0,.832,2,.242.242,0,0,1-.035.3L4.469,17.2a1,1,0,0,0,0,1.414l.92.92a1,1,0,0,0,1.414,0l1.06-1.06a.242.242,0,0,1,.3-.035,7.455,7.455,0,0,0,2,.831.243.243,0,0,1,.187.236V21a1,1,0,0,0,1,1h1.3a1,1,0,0,0,1-1V19.5a.243.243,0,0,1,.187-.236,7.455,7.455,0,0,0,2-.831.242.242,0,0,1,.3.035l1.06,1.06a1,1,0,0,0,1.414,0l.92-.92a1,1,0,0,0,0-1.414l-1.06-1.06a.242.242,0,0,1-.035-.3,7.489,7.489,0,0,0,.832-2,.242.242,0,0,1,.235-.187H21a1,1,0,0,0,1-1v-1.3A1,1,0,0,0,21,10.35Zm-9,5.4A3.75,3.75,0,1,1,15.75,12,3.75,3.75,0,0,1,12,15.75Z" />
  </svg>