<svg id="Decorative_icon" data-name="Decorative icon" xmlns="http://www.w3.org/2000/svg" width="18" height="18" viewBox="0 0 18 18">
  <g id="Placement_Area" data-name="Placement Area" fill="red" stroke="rgba(0,0,0,0)" stroke-width="1" opacity="0">
    <rect width="18" height="18" stroke="none"/>
    <rect x="0.5" y="0.5" width="17" height="17" fill="none"/>
  </g>
  <g id="Icon">
    <g id="Canvas" fill="#6e6e6e" stroke="#6e6e6e" stroke-width="1" opacity="0">
      <rect width="18" height="18" stroke="none"/>
      <rect x="0.5" y="0.5" width="17" height="17" fill="none"/>
    </g>
    <path id="Path_636" data-name="Path 636" d="M15,9a.994.994,0,0,1-.293.7l-3.991,3.99a1,1,0,1,1-1.436-1.386l.024-.025L12.59,9,9.3,5.715A1,1,0,0,1,10.691,4.28l.025.024,3.991,3.99A.994.994,0,0,1,15,9Z" fill="#6e6e6e"/>
    <path id="Path_637" data-name="Path 637" d="M9,9a.994.994,0,0,1-.292.7l-3.991,3.99A1,1,0,1,1,3.28,12.309l.025-.024L6.59,9,3.3,5.715A1,1,0,0,1,4.692,4.28l.024.024,3.992,3.99A.994.994,0,0,1,9,9Z" fill="#6e6e6e"/>
  </g>
</svg>
