<svg xmlns="http://www.w3.org/2000/svg" width="18" height="18" viewBox="0 0 18 18" fill="none" class="spectrum-Tabs-item-icon spectrum-Icon spectrum-Icon--sizeS" icon="aiContent" aria-hidden="true" data-name="aiContent" focusable="false" role="img"><g fill="#6e6e6e" fill-rule="evenodd" clip-rule="evenodd"><path d="M14.952 8.692 14 9.732V14a1 1 0 0 1-1 1H5a1 1 0 0 1-1-1V6a1 1 0 0 1 1-1h4.487L7.58 3H5a3 3 0 0 0-3 3v8a3 3 0 0 0 3 3h8a3 3 0 0 0 3-3V8.573l-.647-.042a.5.5 0 0 0-.4.161Z"></path><path d="m16.032.118-.446 3.38a.964.964 0 0 0 .259.792l2.149 2.249-3.104-.2a.964.964 0 0 0-.774.31l-2.302 2.515.443-3.383a.964.964 0 0 0-.26-.791L9.853 2.742l3.1.2a.964.964 0 0 0 .773-.31L16.032.118ZM9.935 7.59l-.256 1.935a.888.888 0 0 0 .239.73l1.221 1.278-1.764-.114a.888.888 0 0 0-.713.287l-1.318 1.44.254-1.938a.888.888 0 0 0-.239-.728L6.14 9.202l1.763.113a.888.888 0 0 0 .712-.286l1.32-1.439Z"></path></g></svg>