<svg xmlns="http://www.w3.org/2000/svg" height="24" id="S_TextNumbered_24_N" viewBox="0 0 24 24" width="24">
  <defs>
    <style>
      .fill {
        fill: #707070;
      }

      
    </style>
  </defs>
  <rect id="Canvas" fill="#ff13dc" opacity="0" width="24" height="24" /><path class="fill" d="M3.086,19.429c-.045,0-.063-.019-.063-.065v-.909c0-.055,0-.092.055-.092l.458,0c.643,0,.992-.193.992-.616,0-.4-.34-.671-1.011-.671a2.841,2.841,0,0,0-1.36.349c-.055.028-.063,0-.063-.036v-.91c0-.055-.01-.073.045-.1a3.394,3.394,0,0,1,1.6-.358c1.213,0,1.966.606,1.966,1.562a1.3,1.3,0,0,1-.808,1.2,1.461,1.461,0,0,1,1.093,1.434c0,1.176-1.084,1.8-2.352,1.8a3.309,3.309,0,0,1-1.571-.3c-.055-.018-.055-.073-.055-.119V20.6c0-.037.046-.055.083-.037a3.135,3.135,0,0,0,1.5.386c.827,0,1.149-.34,1.149-.772,0-.487-.35-.753-1.112-.753Z" />
  <path class="fill" d="M3.392,1.186a7.835,7.835,0,0,1-.976.253c-.063.009-.082-.009-.082-.063V.588c0-.045.009-.072.064-.081A5.848,5.848,0,0,0,3.567.045.336.336,0,0,1,3.721,0H4.46c.046,0,.055.027.055.063l0,4.846h.81c.063,0,.081.027.09.082l0,.909c.009.073-.018.1-.072.1H2.527c-.064,0-.082-.027-.073-.081l0-.928a.086.086,0,0,1,.1-.082H3.39Z" />
  <path class="fill" d="M1.908,14c-.062,0-.071-.027-.071-.081v-.646a.131.131,0,0,1,.044-.117A21.936,21.936,0,0,0,3.569,11.64C4.277,10.949,4.586,10.5,4.586,10c0-.565-.461-.9-1.143-.9A3.213,3.213,0,0,0,2,9.5c-.054.027-.09.009-.09-.054V8.556a.1.1,0,0,1,.054-.107A3.412,3.412,0,0,1,3.739,8a1.8,1.8,0,0,1,2,1.789,2.641,2.641,0,0,1-.927,2.048,13.654,13.654,0,0,1-1.138,1.1c.62,0,1.895-.017,2.425-.017.062,0,.071.018.062.081l-.267.929a.089.089,0,0,1-.1.072Z" />
  <rect class="fill" height="2" rx="0.5" ry="0.5" width="13" x="9" y="4" />
  <rect class="fill" height="2" rx="0.5" ry="0.5" width="13" x="9" y="12" />
  <rect class="fill" height="2" rx="0.5" ry="0.5" width="13" x="9" y="20" />
  </svg>