<svg xmlns="http://www.w3.org/2000/svg" width="15.902" height="17.902" viewBox="0 0 15.902 17.902">
  <g id="Group_174403" data-name="Group 174403" transform="translate(-1462 -265)">
    <g id="I_C_O_N_S" data-name="I C O N S" transform="translate(1460 265)">
      <path id="Path_103720" data-name="Path 103720" d="M14,3.957a.5.5,0,0,0-.146-.357L10.4.146A.5.5,0,0,0,10.043,0H10V4h4Z" fill="#6e6e6e"/>
      <path id="Path_103721" data-name="Path 103721" d="M13.5,7.875c.169,0,.335.011.5.025V5H9.5A.5.5,0,0,1,9,4.5V0H2.5A.5.5,0,0,0,2,.5v15a.5.5,0,0,0,.5.5H8.467A5.616,5.616,0,0,1,13.5,7.875Z" fill="#6e6e6e"/>
      <path id="Path_103722" data-name="Path 103722" d="M17.6,12.891H16.532a3.062,3.062,0,0,0-.45-1.089l.756-.757a.3.3,0,0,0,0-.429l-.46-.46a.3.3,0,0,0-.429,0l-.755.757a3.073,3.073,0,0,0-1.089-.45V9.4a.3.3,0,0,0-.3-.3h-.607a.3.3,0,0,0-.3.3v1.063a3.073,3.073,0,0,0-1.089.45l-.754-.757a.3.3,0,0,0-.429,0l-.46.46a.3.3,0,0,0,0,.429l.754.756a3.061,3.061,0,0,0-.45,1.09H9.4a.3.3,0,0,0-.3.3V13.8a.3.3,0,0,0,.3.3h1.062a3.063,3.063,0,0,0,.45,1.089l-.756.757a.3.3,0,0,0,0,.429l.46.46a.3.3,0,0,0,.429,0l.756-.757a3.073,3.073,0,0,0,1.089.45V17.6a.3.3,0,0,0,.3.3H13.8a.3.3,0,0,0,.3-.3V16.532a3.073,3.073,0,0,0,1.089-.45l.756.757a.3.3,0,0,0,.429,0l.46-.46a.3.3,0,0,0,0-.429l-.758-.755a3.063,3.063,0,0,0,.45-1.089H17.6a.3.3,0,0,0,.3-.3v-.606a.3.3,0,0,0-.3-.3ZM13.5,15.08A1.582,1.582,0,1,1,15.08,13.5,1.582,1.582,0,0,1,13.5,15.08Z" fill="#6e6e6e"/>
    </g>
  </g>
</svg>
