<svg xmlns="http://www.w3.org/2000/svg" height="24" id="S_AnnotatePen_24_N" viewBox="0 0 24 24" width="24">
  <defs>
    <style>
      .fill {
        fill: #6e6e6e;
      }

      
    </style>
  </defs>
  <rect id="Canvas" fill="#ff13dc" opacity="0" width="24" height="24" /><path class="fill" d="M18.631,3.112A.643.643,0,0,0,18.6,2.2a.642.642,0,0,0-.908-.03.85.85,0,0,0-.078.1l-.008-.01L11.783,8.085l.007.011a.469.469,0,0,0-.1.079.663.663,0,0,0,.936.936.606.606,0,0,0,.08-.1l.008.009L18.544,3.2l-.009-.009A.6.6,0,0,0,18.631,3.112Z" />
  <path class="fill" d="M19.816,4.127c-.48.481-6.358,6.43-6.393,6.464a1.476,1.476,0,0,1-1.574.02c-.023-.023-.512-.484-.512-.484l-7.2,7.061a.989.989,0,0,0-.218.32L2.675,21.779a.25.25,0,0,0,.33.327l4.289-1.3a1.018,1.018,0,0,0,.306-.208L21.99,6.258Z" />
  <path class="fill" d="M20.493,2.987l2.07,1.971A1.854,1.854,0,0,0,22.025,2.8,2.2,2.2,0,0,0,19.878,2.1c-.119.043.043.2.092.25S20.461,2.922,20.493,2.987Z" />
  <path class="fill" d="M2.482,18.324c-2.035-6.04.2-11.288,5.817-14.34.846-.46.179-1.8-.673-1.341C1.46,6-.718,11.6,1.524,18.333,2.482,21.21,2.482,18.324,2.482,18.324Z" />
  </svg>