<svg xmlns="http://www.w3.org/2000/svg" height="24" id="S_Undo_24_N" viewBox="0 0 24 24" width="24">
  <defs>
    <style>
      .fill {
        fill: #707070;
      }

      
    </style>
  </defs>
  <rect id="Canvas" fill="#ff13dc" opacity="0" width="24" height="24" /><path class="fill" d="M22,13.3A6.681,6.681,0,0,0,15.227,7H7V4a.5.5,0,0,0-.854-.354L1.573,8.323a.251.251,0,0,0,0,.354l4.573,4.677A.5.5,0,0,0,7,13V10h8.3A3.633,3.633,0,0,1,19,13.312,3.5,3.5,0,0,1,15.5,17h-4a.5.5,0,0,0-.5.5v2a.5.5,0,0,0,.5.5h4A6.5,6.5,0,0,0,22,13.3Z" />
  </svg>