<?xml version="1.0" encoding="UTF-8"?>
<svg id="e" data-name="I C O N S" xmlns="http://www.w3.org/2000/svg" width="18" height="18" viewBox="0 0 18 18">
  <rect x="3" y="5" width="2" height="2" fill="#6e6e6e"/>
  <rect x="7" y="5" width="8" height="2" rx=".25" ry=".25" fill="#6e6e6e"/>
  <rect x="3" y="9" width="2" height="2" fill="#6e6e6e"/>
  <path d="M14.55371,10.29297c-.77026-.39502-1.6214-.60681-2.487-.6189-3.258,0-5.92297,3.2439-5.92297,4.29993,0,1.12805,2.79999,4.026,5.90002,4.026,3.11896,0,5.94696-2.90002,5.94696-4.026-.00098-.89294-1.586-2.76404-3.43701-3.68103Zm-2.487,7.01099c-1.91583,0-3.46899-1.5531-3.46899-3.46899,0-1.91577,1.55316-3.46899,3.46899-3.46899s3.46899,1.55322,3.46899,3.46899c-.00055,1.91565-1.55334,3.46851-3.46899,3.46899Z" fill="#6e6e6e"/>
  <path d="M13.07898,13.86597c-.55225,0-1-.44775-1-1,.00385-.35474,.19727-.68018,.50702-.85303-.16449-.0498-.33514-.07642-.50702-.07898-1.04932,0-1.89996,.85071-1.89996,1.90002s.85065,1.90002,1.89996,1.90002c1.04938,0,1.90002-.85071,1.90002-1.90002-.00244-.15222-.02466-.30347-.06598-.44995-.17529,.29468-.49109,.47729-.83405,.48193Z" fill="#6e6e6e"/>
  <path d="M2,13V3h14v6.99414c.34448,.23523,.68195,.49316,1,.77539V.5c0-.276-.22394-.5-.5-.5H1.5c-.27612,0-.5,.224-.5,.5V13.5c0,.27612,.22388,.5,.5,.5h3.65533c-.00012-.0083-.00281-.01758-.00281-.026,0-.28357,.09247-.6178,.25018-.974H2Z" fill="#6e6e6e"/>
  <path d="M7.0025,9.25v1.5c0,.03528,.02423,.05981,.03741,.09033,.83398-.77161,1.88892-1.45667,3.06653-1.84033h-2.85394c-.13806,0-.25,.11194-.25,.25Z" fill="#6e6e6e"/>
</svg>