<svg version="1.1" id="Layer_1" xmlns="http://www.w3.org/2000/svg" xmlns:xlink="http://www.w3.org/1999/xlink" x="0px" y="0px"
	 width="100%" viewBox="0 0 168 144" enable-background="new 0 0 168 144" xml:space="preserve">
<path fill="#F3F3F3" opacity="1.000000" stroke="none" 
	d="
M86.000000,145.000000 
	C57.333336,145.000000 29.166674,145.000000 1.000008,145.000000 
	C1.000005,97.000008 1.000005,49.000019 1.000003,1.000021 
	C56.999985,1.000014 112.999969,1.000014 168.999969,1.000007 
	C168.999969,48.999981 168.999969,96.999962 168.999985,144.999969 
	C141.500000,145.000000 114.000000,145.000000 86.000000,145.000000 
M95.921036,65.040031 
	C93.855896,71.442619 91.790749,77.845215 89.468987,85.043411 
	C84.669075,81.287361 80.438698,77.976982 77.351898,75.561485 
	C79.905586,67.654106 82.003220,60.763115 84.446899,53.997108 
	C84.836258,52.919060 86.772804,51.764893 88.005669,51.751949 
	C91.042259,51.720070 91.602516,50.187710 91.650696,47.663738 
	C91.704842,44.827328 90.443535,43.869827 87.702477,43.942303 
	C82.555359,44.078392 77.402077,43.981510 72.143570,43.981510 
	C71.744949,42.293640 71.413727,40.891174 71.067245,39.424049 
	C67.101791,38.545174 63.468494,37.850540 63.708603,43.980015 
	C58.912640,43.980015 54.435307,43.976536 49.957977,43.980839 
	C43.518879,43.987030 43.518883,43.989452 44.456135,51.521156 
	C55.092415,51.521156 65.832840,51.521156 78.250397,51.521156 
	C75.739494,58.160542 73.655701,63.670582 71.571899,69.180626 
	C71.010902,69.167427 70.449905,69.154236 69.888908,69.141037 
	C67.538147,65.986046 64.898521,63.001369 62.911758,59.631756 
	C60.572376,55.664070 57.796150,55.672031 53.169605,57.940853 
	C56.924850,63.781570 60.450569,69.265305 64.319496,75.282837 
	C60.902020,77.229774 57.303890,79.612221 53.426987,81.385010 
	C50.219090,82.851875 51.055878,84.596809 51.948296,86.992592 
	C53.108826,90.108154 54.809727,89.566704 56.949833,88.289993 
	C61.578205,85.528839 66.231918,82.810173 70.730225,80.159584 
	C75.188568,83.546799 79.288345,86.970062 83.710075,89.908905 
	C86.501450,91.764145 86.804604,93.675438 85.719200,96.563614 
	C84.248062,100.478180 83.105614,104.516273 81.774773,108.648552 
	C90.184967,109.387085 90.465958,109.451744 92.156036,102.107079 
	C93.285942,97.196800 95.522720,95.173615 100.647697,95.930443 
	C103.893806,96.409813 107.268265,96.019989 110.746170,96.019989 
	C111.908752,99.747528 112.651802,103.378006 114.157249,106.658623 
	C116.310608,111.351097 120.445160,108.171677 124.237053,109.009323 
	C119.588959,95.153862 115.147789,81.917839 110.708481,68.681190 
	C107.695740,59.698116 107.696800,59.694672 98.049553,60.043732 
	C97.749992,60.054573 97.458054,60.276249 96.989021,60.472095 
	C96.705490,61.653873 96.397453,62.937798 95.921036,65.040031 
z"/>
<path fill="#696969" opacity="1.000000" stroke="none" 
	d="
M96.005226,64.630875 
	C96.397453,62.937798 96.705490,61.653873 96.989021,60.472095 
	C97.458054,60.276249 97.749992,60.054573 98.049553,60.043732 
	C107.696800,59.694672 107.695740,59.698116 110.708481,68.681190 
	C115.147789,81.917839 119.588959,95.153862 124.237053,109.009323 
	C120.445160,108.171677 116.310608,111.351097 114.157249,106.658623 
	C112.651802,103.378006 111.908752,99.747528 110.746170,96.019989 
	C107.268265,96.019989 103.893806,96.409813 100.647697,95.930443 
	C95.522720,95.173615 93.285942,97.196800 92.156036,102.107079 
	C90.465958,109.451744 90.184967,109.387085 81.774773,108.648552 
	C83.105614,104.516273 84.248062,100.478180 85.719200,96.563614 
	C86.804604,93.675438 86.501450,91.764145 83.710075,89.908905 
	C79.288345,86.970062 75.188568,83.546799 70.730225,80.159584 
	C66.231918,82.810173 61.578205,85.528839 56.949833,88.289993 
	C54.809727,89.566704 53.108826,90.108154 51.948296,86.992592 
	C51.055878,84.596809 50.219090,82.851875 53.426987,81.385010 
	C57.303890,79.612221 60.902020,77.229774 64.319496,75.282837 
	C60.450569,69.265305 56.924850,63.781570 53.169605,57.940853 
	C57.796150,55.672031 60.572376,55.664070 62.911758,59.631756 
	C64.898521,63.001369 67.538147,65.986046 69.888908,69.141037 
	C70.449905,69.154236 71.010902,69.167427 71.571899,69.180626 
	C73.655701,63.670582 75.739494,58.160542 78.250397,51.521156 
	C65.832840,51.521156 55.092415,51.521156 44.456135,51.521156 
	C43.518883,43.989452 43.518879,43.987030 49.957977,43.980839 
	C54.435307,43.976536 58.912640,43.980015 63.708603,43.980015 
	C63.468494,37.850540 67.101791,38.545174 71.067245,39.424049 
	C71.413727,40.891174 71.744949,42.293640 72.143570,43.981510 
	C77.402077,43.981510 82.555359,44.078392 87.702477,43.942303 
	C90.443535,43.869827 91.704842,44.827328 91.650696,47.663738 
	C91.602516,50.187710 91.042259,51.720070 88.005669,51.751949 
	C86.772804,51.764893 84.836258,52.919060 84.446899,53.997108 
	C82.003220,60.763115 79.905586,67.654106 77.351898,75.561485 
	C80.438698,77.976982 84.669075,81.287361 89.468987,85.043411 
	C91.790749,77.845215 93.855896,71.442619 96.005226,64.630875 
M103.419334,70.448746 
	C103.158279,69.851326 102.897217,69.253906 102.354820,68.012650 
	C100.343788,74.875374 98.502335,81.159393 96.590866,87.682365 
	C100.867729,87.682365 104.390327,87.682365 108.320137,87.682365 
	C106.670601,81.906830 105.136848,76.536697 103.419334,70.448746 
z"/>
<path fill="#EBEBEB" opacity="1.000000" stroke="none" 
	d="
M103.511215,70.807655 
	C105.136848,76.536697 106.670601,81.906830 108.320137,87.682365 
	C104.390327,87.682365 100.867729,87.682365 96.590866,87.682365 
	C98.502335,81.159393 100.343788,74.875374 102.354820,68.012650 
	C102.897217,69.253906 103.158279,69.851326 103.511215,70.807655 
z"/>
</svg>