<svg width="18" height="18" viewBox="0 0 18 18" fill="none" xmlns="http://www.w3.org/2000/svg">
<g clip-path="url(#clip0_1391_10963)">
<path d="M9.279 0V5.193H14.472L9.279 0Z" fill="#464646"/>
<path d="M8.244 16.344V12.285C8.244 11.421 8.937 10.728 9.801 10.728H12.177C12.591 10.728 12.987 10.89 13.275 11.187L14.463 12.375V6.219H8.757C8.469 6.219 8.235 5.985 8.235 5.697V0H2.538C2.25 0 2.016 0.234 2.016 0.522V16.092C2.016 16.38 2.25 16.614 2.538 16.614H8.298C8.271 16.533 8.253 16.443 8.244 16.353V16.344Z" fill="#464646"/>
<path d="M16.29 18H9.54C9.396 18 9.279 17.883 9.279 17.739V13.851H16.281C16.425 13.851 16.542 13.968 16.542 14.112V17.748C16.542 17.892 16.425 18.009 16.281 18.009L16.29 18ZM13.437 12.807L12.555 11.925C12.456 11.826 12.33 11.772 12.186 11.772H9.81C9.522 11.772 9.288 12.006 9.288 12.294V12.816H13.437V12.807Z" fill="#464646"/>
</g>
<defs>
<clipPath id="clip0_1391_10963">
<rect width="18" height="18" fill="white"/>
</clipPath>
</defs>
</svg>
