<svg width="18" height="18" viewBox="0 0 18 18" fill="none" xmlns="http://www.w3.org/2000/svg">
<g clip-path="url(#clip0_1391_10971)">
<path d="M8.28 10.74C8.28 8.47998 9.82 6.59998 11.89 6.02998C11.83 4.62998 10.9 3.35998 9.47 2.96998C7.7 2.47998 5.87 3.50998 5.37 5.27998C5.33 5.42998 5.3 5.58998 5.27 5.74998C3.78 5.34998 2.24 6.23998 1.84 7.72998C1.71 8.20998 1.71 8.69998 1.84 9.17998C0.989998 9.02998 0.169999 9.59998 0.0199985 10.47C-0.130002 11.34 0.439998 12.14 1.31 12.29C1.4 12.31 1.49 12.32 1.58 12.32H8.55C8.38 11.83 8.27 11.3 8.27 10.76L8.28 10.74Z" fill="#6E6E6E"/>
<path d="M17.69 10.32H16.67C16.6 9.94004 16.45 9.58004 16.24 9.27004L16.97 8.54004C17.09 8.42004 17.09 8.24004 16.97 8.13004L16.53 7.69004C16.41 7.57004 16.23 7.57004 16.12 7.69004L15.39 8.42004C15.07 8.20004 14.72 8.06004 14.34 7.99004V6.97004C14.34 6.81004 14.21 6.67004 14.04 6.67004H13.46C13.3 6.67004 13.16 6.80004 13.16 6.97004V7.99004C12.78 8.06004 12.43 8.21004 12.11 8.42004L11.38 7.69004C11.26 7.57004 11.08 7.57004 10.97 7.69004L10.53 8.13004C10.41 8.25004 10.41 8.43004 10.53 8.54004L11.26 9.27004C11.04 9.59004 10.9 9.94004 10.83 10.32H9.81C9.65 10.32 9.51 10.45 9.51 10.62V11.2C9.51 11.36 9.64 11.5 9.81 11.5H10.83C10.9 11.88 11.05 12.24 11.26 12.55L10.53 13.28C10.41 13.4 10.41 13.58 10.53 13.69L10.97 14.13C11.09 14.25 11.27 14.25 11.38 14.13L12.11 13.4C12.43 13.62 12.78 13.76 13.16 13.83V14.85C13.16 15.01 13.29 15.15 13.46 15.15H14.04C14.2 15.15 14.34 15.02 14.34 14.85V13.83C14.72 13.76 15.07 13.61 15.39 13.4L16.12 14.13C16.24 14.25 16.42 14.25 16.53 14.13L16.98 13.69C17.1 13.57 17.1 13.39 16.98 13.28L16.25 12.55C16.47 12.23 16.61 11.88 16.68 11.5H17.7C17.86 11.5 18 11.37 18 11.2V10.62C18 10.46 17.87 10.32 17.7 10.32H17.69ZM13.74 12.43C12.9 12.43 12.21 11.75 12.21 10.9C12.21 10.05 12.89 9.37004 13.74 9.37004C14.59 9.37004 15.27 10.05 15.27 10.9C15.27 11.74 14.59 12.43 13.74 12.43Z" fill="#6E6E6E"/>
</g>
<defs>
<clipPath id="clip0_1391_10971">
<rect width="18" height="18" fill="white"/>
</clipPath>
</defs>
</svg>
