<svg width="18" height="18" viewBox="0 0 18 18" fill="none" xmlns="http://www.w3.org/2000/svg">
<path d="M16.614 12.6629H15.48C15.399 12.2489 15.237 11.8529 15.003 11.5019L15.813 10.6919C15.939 10.5659 15.939 10.3589 15.813 10.2329L15.327 9.74695C15.201 9.62095 14.994 9.62095 14.868 9.74695L14.067 10.5569C13.716 10.3229 13.32 10.1609 12.906 10.0799V8.94595C12.906 8.76595 12.762 8.62195 12.582 8.62195H11.934C11.754 8.62195 11.61 8.76595 11.61 8.94595V10.0799C11.196 10.1609 10.8 10.3229 10.449 10.5569L9.639 9.74695C9.513 9.62095 9.306 9.62095 9.18 9.74695L8.694 10.2329C8.568 10.3589 8.568 10.5659 8.694 10.6919L9.504 11.5019C9.27 11.8529 9.108 12.2489 9.027 12.6629H7.893C7.713 12.6629 7.569 12.8069 7.569 12.9869V13.6349C7.569 13.8149 7.713 13.9589 7.893 13.9589H9.027C9.108 14.3729 9.27 14.7689 9.504 15.1199L8.694 15.9299C8.568 16.0559 8.568 16.2629 8.694 16.3889L9.18 16.8749C9.306 17.0009 9.513 17.0009 9.639 16.8749L10.449 16.0649C10.8 16.2989 11.196 16.4609 11.61 16.5419V17.6759C11.61 17.8559 11.754 17.9999 11.934 17.9999H12.582C12.762 17.9999 12.906 17.8559 12.906 17.6759V16.5419C13.32 16.4609 13.716 16.2989 14.067 16.0649L14.877 16.8749C15.003 17.0009 15.21 17.0009 15.336 16.8749L15.822 16.3889C15.948 16.2629 15.948 16.0559 15.822 15.9299L15.012 15.1289C15.246 14.7779 15.408 14.3819 15.489 13.9679H16.623C16.803 13.9679 16.947 13.8239 16.947 13.6439V12.9959C16.947 12.8159 16.803 12.6719 16.623 12.6719L16.614 12.6629ZM12.249 15.1739C11.223 15.1739 10.386 14.3369 10.386 13.3109C10.386 12.2849 11.223 11.4479 12.249 11.4479C13.275 11.4479 14.112 12.2849 14.112 13.3109C14.112 14.3369 13.275 15.1739 12.249 15.1739Z" fill="#6E6E6E"/>
<path d="M6.39 0V5.328H1.062L6.39 0Z" fill="#6E6E6E"/>
<path d="M6.66 13.311C6.66 10.224 9.162 7.722 12.249 7.722C12.789 7.722 13.329 7.821 13.842 7.983V0.531C13.842 0.234 13.608 0 13.311 0H7.452V5.859C7.452 6.156 7.218 6.39 6.921 6.39H1.062V16.506C1.062 16.803 1.296 17.037 1.593 17.037H8.1C7.173 16.02 6.651 14.688 6.651 13.311H6.66Z" fill="#6E6E6E"/>
</svg>
